<?xml version="1.0" encoding="UTF-8" standalone="no"?>
<!-- Created with Inkscape (http://www.inkscape.org/) -->

<svg
   xmlns:dc="http://purl.org/dc/elements/1.1/"
   xmlns:cc="http://creativecommons.org/ns#"
   xmlns:rdf="http://www.w3.org/1999/02/22-rdf-syntax-ns#"
   xmlns:svg="http://www.w3.org/2000/svg"
   xmlns="http://www.w3.org/2000/svg"
   xmlns:sodipodi="http://sodipodi.sourceforge.net/DTD/sodipodi-0.dtd"
   xmlns:inkscape="http://www.inkscape.org/namespaces/inkscape"
   width="4105.2334mm"
   height="3078.9248mm"
   viewBox="0 0 4105.2335 3078.9249"
   version="1.1"
   id="svg8"
   inkscape:version="0.92.1 r15371"
   sodipodi:docname="Logo.svg"
   inkscape:export-filename="C:\Users\Cman.PC-314\Desktop\PhyLake\src\assets\images\splash.png"
   inkscape:export-xdpi="4.94978"
   inkscape:export-ydpi="4.94978">
  <defs
     id="defs2">
    <inkscape:path-effect
       effect="skeletal"
       id="path-effect4718"
       is_visible="true"
       pattern="M 0,5 C 0,2.24 2.24,0 5,0 7.76,0 10,2.24 10,5 10,7.76 7.76,10 5,10 2.24,10 0,7.76 0,5 Z"
       copytype="single_stretched"
       prop_scale="0.26458333"
       scale_y_rel="false"
       spacing="0"
       normal_offset="0"
       tang_offset="0"
       prop_units="false"
       vertical_pattern="false"
       fuse_tolerance="0" />
    <inkscape:path-effect
       effect="skeletal"
       id="path-effect4708"
       is_visible="true"
       pattern="M 0,5 C 0,2.24 2.24,0 5,0 7.76,0 10,2.24 10,5 10,7.76 7.76,10 5,10 2.24,10 0,7.76 0,5 Z"
       copytype="single_stretched"
       prop_scale="0.26458333"
       scale_y_rel="false"
       spacing="0"
       normal_offset="0"
       tang_offset="0"
       prop_units="false"
       vertical_pattern="false"
       fuse_tolerance="0" />
    <inkscape:path-effect
       effect="spiro"
       id="path-effect4706"
       is_visible="true" />
  </defs>
  <sodipodi:namedview
     id="base"
     pagecolor="#ffffff"
     bordercolor="#666666"
     borderopacity="1.0"
     inkscape:pageopacity="0.0"
     inkscape:pageshadow="2"
     inkscape:zoom="0.056568544"
     inkscape:cx="9817.7808"
     inkscape:cy="7003.3195"
     inkscape:document-units="mm"
     inkscape:current-layer="layer1"
     showgrid="false"
     inkscape:snap-bbox="true"
     inkscape:bbox-paths="true"
     inkscape:bbox-nodes="true"
     inkscape:snap-bbox-edge-midpoints="true"
     inkscape:snap-bbox-midpoints="true"
     inkscape:snap-object-midpoints="true"
     inkscape:snap-center="true"
     showguides="true"
     inkscape:guide-bbox="true"
     inkscape:snap-global="false"
     inkscape:window-width="1920"
     inkscape:window-height="1027"
     inkscape:window-x="-8"
     inkscape:window-y="-8"
     inkscape:window-maximized="1"
     fit-margin-top="0"
     fit-margin-left="0"
     fit-margin-right="0"
     fit-margin-bottom="0" />
  <metadata
     id="metadata5">
    <rdf:RDF>
      <cc:Work
         rdf:about="">
        <dc:format>image/svg+xml</dc:format>
        <dc:type
           rdf:resource="http://purl.org/dc/dcmitype/StillImage" />
        <dc:title />
      </cc:Work>
    </rdf:RDF>
  </metadata>
  <g
     inkscape:label="Ebene 1"
     inkscape:groupmode="layer"
     id="layer1"
     transform="translate(8143.2998,2561.3428)">
    <g
       id="g4999"
       transform="translate(1178.6586,3178.6891)">
      <path
         inkscape:connector-curvature="0"
         id="path4822"
         d="m -3568.2287,-3485.7433 a 646.20874,515.18714 0 0 0 -646.2088,515.1871 646.20874,515.18714 0 0 0 646.2088,515.1871 646.20874,515.18714 0 0 0 646.2086,-515.1871 646.20874,515.18714 0 0 0 -646.2086,-515.1871 z m 0,102.8245 a 517.23407,412.36264 0 0 1 517.2342,412.3626 517.23407,412.36264 0 0 1 -517.2342,412.3628 517.23407,412.36264 0 0 1 -517.2343,-412.3628 517.23407,412.36264 0 0 1 517.2343,-412.3626 z"
         style="opacity:1;fill:#000000;fill-opacity:1;stroke:none;stroke-width:47.0831604;stroke-linecap:round;stroke-linejoin:round;stroke-miterlimit:4;stroke-dasharray:none;stroke-opacity:1" />
      <path
         inkscape:connector-curvature="0"
         id="path4870-4"
         d="m -3374.5464,-3209.4492 a 307.77784,307.77784 0 0 1 114.0954,238.8944 307.77784,307.77784 0 0 1 -113.7559,238.7161 573.33841,510.69335 0 0 0 311.0381,-238.7161 573.33841,510.69335 0 0 0 -311.3776,-238.8944 z m -387.7049,0.1794 a 573.33841,510.69335 0 0 0 -311.0374,238.715 573.33841,510.69335 0 0 0 311.3758,238.8917 307.77784,307.77784 0 0 1 -114.0931,-238.8917 307.77784,307.77784 0 0 1 113.7547,-238.715 z"
         style="opacity:1;fill:#000000;fill-opacity:1;stroke:none;stroke-width:69.8480072;stroke-linecap:round;stroke-linejoin:round;stroke-miterlimit:4;stroke-dasharray:none;stroke-opacity:1" />
      <circle
         r="186.40874"
         cy="-2970.5562"
         cx="-3568.2288"
         id="path4921"
         style="opacity:1;fill:#000000;fill-opacity:1;stroke:none;stroke-width:22.58905792;stroke-linecap:round;stroke-linejoin:round;stroke-miterlimit:4;stroke-dasharray:none;stroke-opacity:1" />
    </g>
    <g
       id="g5005"
       transform="translate(1157.0274,3165.5079)">
      <ellipse
         ry="470.0603"
         rx="586.99072"
         cy="-2960.6814"
         cx="-2093.0544"
         id="path4946"
         style="opacity:1;fill:#76ff03;fill-opacity:1;stroke:none;stroke-width:28.50293922;stroke-linecap:round;stroke-linejoin:round;stroke-miterlimit:4;stroke-dasharray:none;stroke-opacity:1" />
      <path
         inkscape:connector-curvature="0"
         id="path4822-8"
         d="m -2096.8228,-3472.5621 a 646.20876,515.18714 0 0 0 -646.2088,515.1871 646.20876,515.18714 0 0 0 646.2088,515.1871 646.20876,515.18714 0 0 0 646.2086,-515.1871 646.20876,515.18714 0 0 0 -646.2086,-515.1871 z m 0,102.8245 a 517.23406,412.36265 0 0 1 517.2342,412.3626 517.23406,412.36265 0 0 1 -517.2342,412.3628 517.23406,412.36265 0 0 1 -517.2343,-412.3628 517.23406,412.36265 0 0 1 517.2343,-412.3626 z"
         style="opacity:1;fill:#000000;fill-opacity:1;stroke:none;stroke-width:47.0831604;stroke-linecap:round;stroke-linejoin:round;stroke-miterlimit:4;stroke-dasharray:none;stroke-opacity:1" />
      <path
         inkscape:connector-curvature="0"
         id="path4870-4-8"
         d="m -1903.1405,-3196.268 a 307.77783,307.77783 0 0 1 114.0954,238.8944 307.77783,307.77783 0 0 1 -113.7559,238.7161 573.3384,510.69335 0 0 0 311.0381,-238.7161 573.3384,510.69335 0 0 0 -311.3776,-238.8944 z m -387.7049,0.1794 a 573.3384,510.69335 0 0 0 -311.0374,238.715 573.3384,510.69335 0 0 0 311.3758,238.8917 307.77783,307.77783 0 0 1 -114.0931,-238.8917 307.77783,307.77783 0 0 1 113.7547,-238.715 z"
         style="opacity:1;fill:#000000;fill-opacity:1;stroke:none;stroke-width:69.8480072;stroke-linecap:round;stroke-linejoin:round;stroke-miterlimit:4;stroke-dasharray:none;stroke-opacity:1" />
      <circle
         r="186.40874"
         cy="-2957.375"
         cx="-2096.8228"
         id="path4921-2"
         style="opacity:1;fill:#000000;fill-opacity:1;stroke:none;stroke-width:22.58905792;stroke-linecap:round;stroke-linejoin:round;stroke-miterlimit:4;stroke-dasharray:none;stroke-opacity:1" />
    </g>
    <g
       id="g5011"
       transform="translate(1164.8229,3152.2788)">
      <ellipse
         ry="470.0603"
         rx="586.99072"
         cy="-2947.4521"
         cx="-651.07526"
         id="path4946-0"
         style="opacity:1;fill:#ffeb3b;fill-opacity:1;stroke:none;stroke-width:28.50293922;stroke-linecap:round;stroke-linejoin:round;stroke-miterlimit:4;stroke-dasharray:none;stroke-opacity:1" />
      <path
         inkscape:connector-curvature="0"
         id="path4822-8-6"
         d="m -654.84364,-3459.333 a 646.20876,515.18714 0 0 0 -646.20886,515.1871 646.20876,515.18714 0 0 0 646.20886,515.1871 646.20876,515.18714 0 0 0 646.2085864,-515.1871 646.20876,515.18714 0 0 0 -646.2085864,-515.1871 z m 0,102.8245 a 517.23406,412.36265 0 0 1 517.23419,412.3626 517.23406,412.36265 0 0 1 -517.23419,412.3628 517.23406,412.36265 0 0 1 -517.23436,-412.3628 517.23406,412.36265 0 0 1 517.23436,-412.3626 z"
         style="opacity:1;fill:#000000;fill-opacity:1;stroke:none;stroke-width:47.0831604;stroke-linecap:round;stroke-linejoin:round;stroke-miterlimit:4;stroke-dasharray:none;stroke-opacity:1" />
      <path
         inkscape:connector-curvature="0"
         id="path4870-4-8-9"
         d="m -461.16134,-3183.0389 a 307.77783,307.77783 0 0 1 114.0954,238.8944 307.77783,307.77783 0 0 1 -113.75591,238.7161 573.3384,510.69335 0 0 0 311.0381,-238.7161 573.3384,510.69335 0 0 0 -311.37759,-238.8944 z m -387.70491,0.1794 a 573.3384,510.69335 0 0 0 -311.03745,238.715 573.3384,510.69335 0 0 0 311.37585,238.8917 307.77783,307.77783 0 0 1 -114.0931,-238.8917 307.77783,307.77783 0 0 1 113.7547,-238.715 z"
         style="opacity:1;fill:#000000;fill-opacity:1;stroke:none;stroke-width:69.8480072;stroke-linecap:round;stroke-linejoin:round;stroke-miterlimit:4;stroke-dasharray:none;stroke-opacity:1" />
      <circle
         r="186.40874"
         cy="-2944.1458"
         cx="-654.84357"
         id="path4921-2-3"
         style="opacity:1;fill:#000000;fill-opacity:1;stroke:none;stroke-width:22.58905792;stroke-linecap:round;stroke-linejoin:round;stroke-miterlimit:4;stroke-dasharray:none;stroke-opacity:1" />
    </g>
    <g
       id="g5017"
       transform="translate(1178.6587,3143.0896)">
      <ellipse
         ry="470.0603"
         rx="586.99072"
         cy="-2938.2629"
         cx="784.86371"
         id="path4946-0-1"
         style="opacity:1;fill:#ff3d00;fill-opacity:1;stroke:none;stroke-width:28.50293922;stroke-linecap:round;stroke-linejoin:round;stroke-miterlimit:4;stroke-dasharray:none;stroke-opacity:1" />
      <path
         inkscape:connector-curvature="0"
         id="path4822-8-6-2"
         d="m 781.09534,-3450.1438 a 646.20876,515.18714 0 0 0 -646.2089,515.1871 646.20876,515.18714 0 0 0 646.2089,515.1871 646.20876,515.18714 0 0 0 646.20856,-515.1871 646.20876,515.18714 0 0 0 -646.20856,-515.1871 z m 0,102.8245 a 517.23406,412.36265 0 0 1 517.23416,412.3626 517.23406,412.36265 0 0 1 -517.23416,412.3628 517.23406,412.36265 0 0 1 -517.2344,-412.3628 517.23406,412.36265 0 0 1 517.2344,-412.3626 z"
         style="opacity:1;fill:#000000;fill-opacity:1;stroke:none;stroke-width:47.0831604;stroke-linecap:round;stroke-linejoin:round;stroke-miterlimit:4;stroke-dasharray:none;stroke-opacity:1" />
      <path
         inkscape:connector-curvature="0"
         id="path4870-4-8-9-5"
         d="m 974.77764,-3173.8497 a 307.77783,307.77783 0 0 1 114.09536,238.8944 307.77783,307.77783 0 0 1 -113.75586,238.7161 573.3384,510.69335 0 0 0 311.03806,-238.7161 573.3384,510.69335 0 0 0 -311.37756,-238.8944 z m -387.7049,0.1794 a 573.3384,510.69335 0 0 0 -311.0375,238.715 573.3384,510.69335 0 0 0 311.3759,238.8917 307.77783,307.77783 0 0 1 -114.09314,-238.8917 307.77783,307.77783 0 0 1 113.75474,-238.715 z"
         style="opacity:1;fill:#000000;fill-opacity:1;stroke:none;stroke-width:69.8480072;stroke-linecap:round;stroke-linejoin:round;stroke-miterlimit:4;stroke-dasharray:none;stroke-opacity:1" />
      <circle
         r="186.40874"
         cy="-2934.9565"
         cx="781.0954"
         id="path4921-2-3-7"
         style="opacity:1;fill:#000000;fill-opacity:1;stroke:none;stroke-width:22.58905792;stroke-linecap:round;stroke-linejoin:round;stroke-miterlimit:4;stroke-dasharray:none;stroke-opacity:1" />
    </g>
    <path
       style="opacity:1;fill:#212121;fill-opacity:1;stroke:none;stroke-width:42.21304703;stroke-linecap:round;stroke-linejoin:round;stroke-miterlimit:4;stroke-dasharray:none;stroke-opacity:1"
       d="m -8143.2998,-2561.3428 h 4105.2334 V 517.58203 h -4105.2334 z"
       id="rect4504" />
    <g
       style="fill:#000000;fill-opacity:1"
       id="g4530"
       transform="matrix(1.8538059,0,0,1.8538059,529.94137,4484.9542)">
      <path
         inkscape:connector-curvature="0"
         id="path4524"
         d="m -3568.2287,-3485.7433 a 646.20874,515.18714 0 0 0 -646.2088,515.1871 646.20874,515.18714 0 0 0 646.2088,515.1871 646.20874,515.18714 0 0 0 646.2086,-515.1871 646.20874,515.18714 0 0 0 -646.2086,-515.1871 z m 0,102.8245 a 517.23407,412.36264 0 0 1 517.2342,412.3626 517.23407,412.36264 0 0 1 -517.2342,412.3628 517.23407,412.36264 0 0 1 -517.2343,-412.3628 517.23407,412.36264 0 0 1 517.2343,-412.3626 z"
         style="opacity:1;fill:#000000;fill-opacity:1;stroke:none;stroke-width:47.0831604;stroke-linecap:round;stroke-linejoin:round;stroke-miterlimit:4;stroke-dasharray:none;stroke-opacity:1" />
      <path
         inkscape:connector-curvature="0"
         id="path4526"
         d="m -3374.5464,-3209.4492 a 307.77784,307.77784 0 0 1 114.0954,238.8944 307.77784,307.77784 0 0 1 -113.7559,238.7161 573.33841,510.69335 0 0 0 311.0381,-238.7161 573.33841,510.69335 0 0 0 -311.3776,-238.8944 z m -387.7049,0.1794 a 573.33841,510.69335 0 0 0 -311.0374,238.715 573.33841,510.69335 0 0 0 311.3758,238.8917 307.77784,307.77784 0 0 1 -114.0931,-238.8917 307.77784,307.77784 0 0 1 113.7547,-238.715 z"
         style="opacity:1;fill:#000000;fill-opacity:1;stroke:none;stroke-width:69.8480072;stroke-linecap:round;stroke-linejoin:round;stroke-miterlimit:4;stroke-dasharray:none;stroke-opacity:1" />
      <circle
         r="186.40874"
         cy="-2970.5562"
         cx="-3568.2288"
         id="circle4528"
         style="opacity:1;fill:#000000;fill-opacity:1;stroke:none;stroke-width:22.58905792;stroke-linecap:round;stroke-linejoin:round;stroke-miterlimit:4;stroke-dasharray:none;stroke-opacity:1" />
    </g>
    <g
       transform="matrix(1.8538059,0,0,1.8538059,524.1205,4484.9542)"
       id="g4514"
       style="opacity:0.4;fill:#ffffff;fill-opacity:1">
      <path
         style="opacity:1;fill:#ffffff;fill-opacity:1;stroke:none;stroke-width:47.0831604;stroke-linecap:round;stroke-linejoin:round;stroke-miterlimit:4;stroke-dasharray:none;stroke-opacity:1"
         d="m -3568.2287,-3485.7433 a 646.20874,515.18714 0 0 0 -646.2088,515.1871 646.20874,515.18714 0 0 0 646.2088,515.1871 646.20874,515.18714 0 0 0 646.2086,-515.1871 646.20874,515.18714 0 0 0 -646.2086,-515.1871 z m 0,102.8245 a 517.23407,412.36264 0 0 1 517.2342,412.3626 517.23407,412.36264 0 0 1 -517.2342,412.3628 517.23407,412.36264 0 0 1 -517.2343,-412.3628 517.23407,412.36264 0 0 1 517.2343,-412.3626 z"
         id="path4508"
         inkscape:connector-curvature="0" />
      <path
         style="opacity:1;fill:#ffffff;fill-opacity:1;stroke:none;stroke-width:69.8480072;stroke-linecap:round;stroke-linejoin:round;stroke-miterlimit:4;stroke-dasharray:none;stroke-opacity:1"
         d="m -3374.5464,-3209.4492 a 307.77784,307.77784 0 0 1 114.0954,238.8944 307.77784,307.77784 0 0 1 -113.7559,238.7161 573.33841,510.69335 0 0 0 311.0381,-238.7161 573.33841,510.69335 0 0 0 -311.3776,-238.8944 z m -387.7049,0.1794 a 573.33841,510.69335 0 0 0 -311.0374,238.715 573.33841,510.69335 0 0 0 311.3758,238.8917 307.77784,307.77784 0 0 1 -114.0931,-238.8917 307.77784,307.77784 0 0 1 113.7547,-238.715 z"
         id="path4510"
         inkscape:connector-curvature="0" />
      <circle
         style="opacity:1;fill:#ffffff;fill-opacity:1;stroke:none;stroke-width:22.58905792;stroke-linecap:round;stroke-linejoin:round;stroke-miterlimit:4;stroke-dasharray:none;stroke-opacity:1"
         id="circle4512"
         cx="-3568.2288"
         cy="-2970.5562"
         r="186.40874" />
    </g>
    <text
       id="text4522"
       y="-855.3313"
       x="-7586.8105"
       style="font-style:normal;font-weight:normal;font-size:134.0098114px;line-height:1.25;font-family:sans-serif;letter-spacing:0px;word-spacing:0px;fill:#000000;fill-opacity:1;stroke:none;stroke-width:3.35024524"
       xml:space="preserve"><tspan
         style="font-style:normal;font-variant:normal;font-weight:normal;font-stretch:normal;font-size:643.24713135px;font-family:'BankGothic Md BT';-inkscape-font-specification:'BankGothic Md BT';fill:#000000;fill-opacity:1;stroke-width:3.35024524"
         y="-855.3313"
         x="-7586.8105"
         id="tspan4520"
         sodipodi:role="line">PhyLake</tspan></text>
    <text
       xml:space="preserve"
       style="font-style:normal;font-weight:normal;font-size:134.0098114px;line-height:1.25;font-family:sans-serif;letter-spacing:0px;word-spacing:0px;fill:#00e5ff;fill-opacity:1;stroke:none;stroke-width:3.35024524"
       x="-7594.9956"
       y="-855.88611"
       id="text4518"><tspan
         sodipodi:role="line"
         id="tspan4516"
         x="-7594.9956"
         y="-855.88611"
         style="font-style:normal;font-variant:normal;font-weight:normal;font-stretch:normal;font-size:643.24713135px;font-family:'BankGothic Md BT';-inkscape-font-specification:'BankGothic Md BT';fill:#00e5ff;fill-opacity:1;stroke-width:3.35024524">PhyLake</tspan></text>
  </g>
</svg>
